<?xml version="1.0" encoding="UTF-8" standalone="no"?>
<!-- Created with Inkscape (http://www.inkscape.org/) -->

<svg
   version="1.1"
   id="svg1"
   width="1003.2628"
   height="269.39999"
   viewBox="0 0 1003.2628 269.39999"
   xmlns="http://www.w3.org/2000/svg"
   xmlns:svg="http://www.w3.org/2000/svg">
  <defs
     id="defs1">
    <clipPath
       clipPathUnits="userSpaceOnUse"
       id="clipPath2">
      <path
         d="M 0,768 H 1366 V 0 H 0 Z"
         transform="translate(-495.06811,-481.70231)"
         id="path2" />
    </clipPath>
    <clipPath
       clipPathUnits="userSpaceOnUse"
       id="clipPath3">
      <path
         d="M 430.877,481.941 H 555.598 V 327.895 H 430.877 Z"
         transform="translate(-555.59761,-481.91561)"
         id="path3" />
    </clipPath>
    <clipPath
       clipPathUnits="userSpaceOnUse"
       id="clipPath5">
      <path
         d="M 0,768 H 1366 V 0 H 0 Z"
         transform="matrix(1.3333333,0,0,-1.3333333,0,1024)"
         id="path5" />
    </clipPath>
    <clipPath
       clipPathUnits="userSpaceOnUse"
       id="clipPath7">
      <path
         d="M 0,768 H 1366 V 0 H 0 Z"
         transform="translate(-306.77651,-328.71101)"
         id="path7" />
    </clipPath>
    <clipPath
       clipPathUnits="userSpaceOnUse"
       id="clipPath9">
      <path
         d="M 0,768 H 1366 V 0 H 0 Z"
         transform="translate(-653.97521,-328.71101)"
         id="path9" />
    </clipPath>
    <clipPath
       clipPathUnits="userSpaceOnUse"
       id="clipPath11">
      <path
         d="M 0,768 H 1366 V 0 H 0 Z"
         transform="translate(-789.61622,-480.11821)"
         id="path11" />
    </clipPath>
    <clipPath
       clipPathUnits="userSpaceOnUse"
       id="clipPath13">
      <path
         d="M 0,768 H 1366 V 0 H 0 Z"
         transform="translate(-942.06565,-404.41391)"
         id="path13" />
    </clipPath>
  </defs>
  <g
     id="layer-MC0"
     transform="translate(-409.03533,-377.30014)">
    <path
       id="path1"
       d="M 0,0 C 0.765,0.064 1.639,0.201 2.513,0.202 22.65,0.206 42.787,0.199 62.925,0.179 c 0.869,-0.001 1.739,-0.143 2.693,-0.227 0.485,-1.241 0.952,-2.373 1.373,-3.52 10.973,-29.897 21.941,-59.796 32.912,-89.695 3.796,-10.346 7.683,-20.454 12.106,-30.496 3.342,-7.589 6.685,-15.178 10.027,-22.767 0.817,-1.854 3.837,-5.241 1.036,-6.367 -0.816,-0.329 -2.407,-0.039 -3.287,-0.053 -3.201,-0.051 -6.402,-0.103 -9.604,-0.154 -8.572,-0.138 -17.144,-0.275 -25.716,-0.413 -5.37,-0.086 -10.741,-0.172 -16.112,-0.258 -4.873,-0.078 -10.275,0.452 -15.049,-0.369 -0.637,1.283 -1.099,2.702 -1.572,4.06 -6.204,17.835 -12.394,35.676 -18.614,53.506 -0.437,1.253 -1.086,2.431 -1.624,3.649 -0.406,0.917 -0.845,1.824 -1.176,2.768 -2.847,8.123 -5.676,16.25 -8.503,24.379 -5.508,15.835 -11.016,31.67 -16.512,47.509 C 3.544,-13.2 1.814,-8.122 0.089,-3.041 -0.225,-2.115 -0.729,-1.176 0,0"
       style="fill:#00fcd6;fill-opacity:1;fill-rule:nonzero;stroke:none"
       transform="matrix(1.3333333,0,0,-1.3333333,660.0908,381.73027)"
       clip-path="url(#clipPath2)" />
    <g
       opacity="0.899994"
       id="g4"
       clip-path="url(#clipPath5)">
      <path
         d="m 0,0 c -0.765,0.064 -2.577,-0.012 -3.45,-0.012 -20.138,0.005 -40.275,-0.002 -60.412,-0.022 -0.87,-0.001 -1.74,-0.144 -2.694,-0.228 -0.485,-1.241 -0.952,-2.372 -1.373,-3.519 -10.973,-29.898 -21.941,-59.797 -32.911,-89.695 -3.797,-10.346 -7.684,-20.454 -12.107,-30.496 -3.342,-7.589 -5.996,-15.626 -9.338,-23.216 -0.817,-1.853 -1.572,-3.279 -2.412,-5.312 -0.336,-0.813 3.094,-0.645 3.974,-0.659 3.201,-0.052 6.403,-0.103 9.604,-0.154 8.572,-0.138 17.144,-0.275 25.716,-0.413 5.371,-0.086 10.742,-0.172 16.112,-0.258 4.873,-0.078 10.482,-0.016 15.318,0.046 0.49,1.285 0.831,2.287 1.303,3.644 6.204,17.836 12.394,35.676 18.614,53.507 0.437,1.252 1.086,2.43 1.625,3.649 0.405,0.917 0.845,1.824 1.175,2.768 2.847,8.122 5.677,16.25 8.504,24.379 5.507,15.835 11.015,31.67 16.511,47.509 1.759,5.069 3.489,10.147 5.214,15.228 C -0.713,-2.329 -0.544,-1.755 0,0"
         style="fill:#9b00ff;fill-opacity:1;fill-rule:nonzero;stroke:none"
         transform="matrix(1.3333333,0,0,-1.3333333,740.7968,381.44587)"
         clip-path="url(#clipPath3)"
         id="path4" />
    </g>
    <path
       id="path6"
       d="M 0,0 V 151.407 H 35.71 V 85.519 l 50.017,65.888 h 43.02 L 71.63,79.358 133.238,0 H 89.59 L 35.71,69.751 V 0 Z"
       style="fill:#120333;fill-opacity:1;fill-rule:nonzero;stroke:none"
       transform="matrix(1.3333333,0,0,-1.3333333,409.03533,585.71867)"
       clip-path="url(#clipPath7)" />
    <path
       id="path8"
       d="m 0,0 v 119.768 h -48.137 v 31.639 H 84.058 V 119.768 H 36.129 V 0 Z"
       style="fill:#120333;fill-opacity:1;fill-rule:nonzero;stroke:none"
       transform="matrix(1.3333333,0,0,-1.3333333,871.96693,585.71867)"
       clip-path="url(#clipPath9)" />
    <path
       id="path10"
       d="m 0,0 v -83.222 c 0,-13.366 2.453,-23.373 7.361,-30.02 4.907,-6.649 12.338,-9.972 22.294,-9.972 9.606,0 16.931,3.097 21.98,9.293 5.046,6.196 7.569,15.209 7.569,27.045 V 0 H 91.47 v -86.876 c 0,-21.86 -5.605,-38.896 -16.812,-51.113 -11.209,-12.218 -26.767,-18.326 -46.674,-18.326 -20.119,0 -35.764,6.057 -46.936,18.169 -11.173,12.113 -16.76,29.133 -16.76,51.061 V 0 Z"
       style="fill:#120333;fill-opacity:1;fill-rule:nonzero;stroke:none"
       transform="matrix(1.3333333,0,0,-1.3333333,1052.8216,383.8424)"
       clip-path="url(#clipPath11)" />
    <path
       id="path12"
       d="m 0,0 c 0,-13.156 3.846,-24.172 11.538,-33.048 7.691,-8.876 17.177,-13.314 28.455,-13.314 11.345,0 20.848,4.421 28.505,13.262 7.657,8.839 11.487,19.874 11.487,33.1 0,13.296 -3.83,24.382 -11.487,33.257 -7.657,8.877 -17.16,13.314 -28.505,13.314 -11.278,0 -20.764,-4.437 -28.455,-13.314 C 3.846,24.382 0,13.296 0,0 m -20.256,-87.711 c 0.903,4.943 2.122,9.885 3.653,14.828 1.531,4.942 3.447,9.988 5.744,15.14 -8.703,7.796 -15.263,16.654 -19.684,26.574 -4.42,9.92 -6.63,20.657 -6.63,32.214 0,8.909 1.357,17.542 4.073,25.896 2.714,8.353 6.683,15.975 11.903,22.868 7.378,9.814 16.394,17.401 27.044,22.762 10.652,5.36 22.033,8.04 34.146,8.04 8.63,0 16.932,-1.376 24.903,-4.124 7.97,-2.751 15.366,-6.805 22.19,-12.165 9.674,-7.588 17.106,-16.915 22.292,-27.984 5.186,-11.068 7.78,-23.181 7.78,-36.338 0,-10.442 -2.02,-20.502 -6.057,-30.177 -4.038,-9.676 -9.71,-18.064 -17.02,-25.164 -6.544,-6.544 -13.976,-11.609 -22.294,-15.193 -8.319,-3.587 -16.62,-5.378 -24.904,-5.378 -3.549,0 -9.606,0.905 -18.168,2.715 l -0.209,0.104 -0.312,-2.192 c 4.732,-1.045 15.244,-4.315 31.533,-9.816 16.29,-5.498 30.245,-8.562 41.872,-9.189 l -8.771,-27.149 c -12.88,0.977 -30.803,6.371 -53.775,16.185 -2.995,1.253 -5.257,2.193 -6.788,2.82 l -1.253,0.522 c -19.701,8.353 -36.791,13.089 -51.268,14.201"
       style="fill:#120333;fill-opacity:1;fill-rule:nonzero;stroke:none"
       transform="matrix(1.3333333,0,0,-1.3333333,1256.0875,484.78147)"
       clip-path="url(#clipPath13)" />
  </g>
</svg>
